<svg width="97" height="125" viewBox="0 0 97 125" fill="none" xmlns="http://www.w3.org/2000/svg">
<g clip-path="url(#clip0_18_1745)">
<path d="M94.928 104.858C94.5728 97.4832 94.04 90.1049 93.2547 82.7561C92.7969 78.5247 91.4117 74.4297 88.2545 71.1575C87.3389 70.213 86.9995 69.2797 86.8929 68.0586C86.6443 65.1331 86.0642 62.2519 84.604 59.5994C83.4871 57.5704 81.9322 55.9619 79.4972 55.2905C75.8941 54.2944 72.2515 55.604 69.9507 58.7693C68.1471 61.2484 67.1881 64.0522 66.9908 66.9998C66.8685 68.8333 65.8503 69.7519 64.2954 70.593C63.4311 68.018 62.1051 65.7824 59.824 64.3215C58.423 63.425 58.127 62.3589 57.9849 60.9533C57.6692 57.8433 56.9944 54.8035 55.175 52.103C53.4267 49.5022 50.9207 48.2626 47.6215 48.5061C44.259 48.757 42.0727 50.6016 40.4902 53.1987C38.7063 56.1242 38.1815 59.3706 37.8026 62.6577C37.7474 63.1225 37.4435 63.6833 37.0607 63.9747C33.568 66.6161 31.8197 70.0028 31.8395 74.2047C31.8592 78.0377 31.8434 81.8707 31.8434 85.7038V87.2384C29.9649 86.9249 29.4874 85.9878 29.5821 84.5122C29.661 83.2615 29.4913 81.9925 29.3413 80.7382C28.9625 77.5471 28.3942 74.3892 26.5788 71.5817C23.6268 67.0109 17.3874 66.2767 13.5949 70.2684C12.1149 71.8252 11.0731 73.8837 10.3074 75.8759C8.81567 79.7458 9.04061 83.8666 8.85118 87.9136C8.82356 88.5112 8.63807 89.1347 8.36971 89.6806C7.29627 91.8831 5.89527 93.9785 5.09413 96.2621C2.17373 104.559 1.65674 113.221 0.977946 121.846C0.835872 123.706 1.4752 124.292 3.47212 124.292C33.1339 124.296 62.7917 124.296 92.4535 124.292C94.4623 124.292 95.0661 123.743 95.0582 121.902C95.0385 116.22 95.2003 110.528 94.928 104.858ZM13.7803 77.311C14.029 75.8279 14.8933 74.3117 15.8641 73.0758C18.0307 70.3237 21.7917 70.641 23.5479 73.6329C25.1383 76.3444 25.6672 79.3621 25.6751 82.3798C25.6908 88.4927 25.4975 94.6093 25.3001 100.722C25.2686 101.678 24.8305 102.648 24.4477 103.563C23.5479 105.71 21.8549 106.843 19.3409 106.861C16.7757 106.879 14.9327 105.773 14.1237 103.541C13.508 101.855 13.0581 100.062 12.9318 98.2911C12.7345 95.5575 12.8805 92.8017 12.8805 90.0569C12.6595 90.0422 12.4425 90.0311 12.2215 90.0164C12.7187 85.7775 13.0779 81.5203 13.7803 77.311ZM31.8434 119.234V120.736H4.7942C5.49667 112.638 6.08864 104.603 8.76041 96.8376C9.28924 99.3204 9.56155 101.785 10.3548 104.094C12.0991 109.178 16.8981 111.454 22.2258 109.964C25.3041 109.1 27.3286 107.086 28.1219 104.312C28.8993 101.6 29.2072 98.7559 29.5268 95.9522C29.7241 94.2183 29.5623 92.4512 29.5623 90.6988C29.7873 90.6288 30.0083 90.5587 30.2293 90.4886C30.7187 91.5547 31.3106 92.5951 31.6579 93.7018C31.8947 94.4581 31.8355 95.3066 31.8355 96.1182C31.8474 103.821 31.8434 111.528 31.8434 119.234ZM42.4437 58.2233C42.6528 56.8547 43.3869 55.4638 44.2038 54.2796C46.5243 50.9114 50.8852 51.0996 52.4441 54.7998C53.5491 57.4302 54.2752 60.3483 54.3936 63.1668C54.6344 68.8259 54.4449 74.5072 54.2121 80.1737C54.145 81.7822 53.4899 83.4312 52.7992 84.9401C51.9429 86.8142 50.1906 87.5705 48.0003 87.5668C45.81 87.5631 43.9473 86.8289 43.233 84.918C42.4042 82.6971 41.8596 80.3397 41.5952 78.0008C41.3229 75.5955 41.536 73.1422 41.536 70.7111C41.3544 70.7 41.1729 70.6889 40.9914 70.6779C41.4531 66.5239 41.8122 62.3552 42.4437 58.2233ZM60.9132 120.71H35.5531V119.249C35.5531 104.378 35.557 89.5073 35.5492 74.6326C35.5492 72.5188 35.9162 70.5266 37.6053 68.8075C37.6053 69.2649 37.5934 69.7261 37.6053 70.1835C37.7671 74.6769 37.3882 79.2146 38.6511 83.6231C39.6851 87.22 41.6583 90.0606 45.9008 90.8944C50.5892 91.8167 54.6857 89.8393 56.6194 85.7111C57.9218 82.9295 58.1941 79.9634 58.2612 76.9863C58.3283 74.0682 58.277 71.1501 58.4546 68.1914C60.0055 69.3645 60.6054 70.9472 60.8935 72.67C60.9803 73.1976 60.9685 73.7472 60.9685 74.2859C60.9724 89.3413 60.9724 104.393 60.9724 119.445C60.9724 119.843 60.933 120.238 60.9093 120.71H60.9132ZM71.1188 65.2991C71.3319 63.8308 72.0897 62.3773 72.8513 61.0492C73.8222 59.3633 75.3731 58.3672 77.5674 58.5C79.659 58.6254 80.914 59.8982 81.4034 61.5251C82.2361 64.2735 83.124 67.1105 83.2069 69.9327C83.3766 75.9054 83.0609 81.8929 82.8912 87.873C82.8715 88.6182 82.5715 89.3708 82.3111 90.0901C81.3165 92.8533 79.5998 94.0892 76.857 94.0781C74.0432 94.067 72.3146 92.8976 71.3911 90.127C70.9215 88.7215 70.6768 87.2347 70.4874 85.7665C70.298 84.2945 70.2743 82.8004 70.2309 81.3137C70.1914 79.9634 70.223 78.6132 70.223 77.2593C70.1006 77.2519 69.9822 77.2445 69.8638 77.2335C70.2624 73.2529 70.5426 69.2576 71.1188 65.2991ZM91.2972 120.706H64.7255V78.9711C64.7255 77.2778 65.057 75.6767 66.4265 73.9354C66.4265 74.7396 66.4028 75.1971 66.4304 75.6508C66.6988 80.1885 66.9316 84.7261 67.2907 89.2564C67.3697 90.2635 67.8196 91.2707 68.2537 92.2151C69.8796 95.764 72.7329 97.616 76.932 97.5791C81.06 97.5422 83.9844 95.705 85.4248 92.1745C86.2536 90.1492 86.7311 87.9209 86.9048 85.7517C87.1495 82.686 86.9679 79.5945 86.9679 76.5104C87.1455 76.503 87.3231 76.4957 87.5007 76.4883C88.8504 79.0891 89.4384 81.8966 89.8488 84.7335C91.2696 94.5909 91.2459 104.511 91.2972 114.431C91.3091 116.493 91.2972 118.559 91.2972 120.706Z" fill="#CD8A1A"/>
<path d="M83.3347 53.4277C81.6141 53.3761 81.2431 52.5128 80.9984 51.4651C80.0276 47.2595 77.419 44.2602 73.2633 42.4489C72.5293 42.1279 71.7242 41.9434 70.9428 41.7184C69.968 41.438 69.305 40.8994 69.3444 39.896C69.38 38.9737 69.9759 38.4683 70.9309 38.2174C76.5113 36.7602 79.9013 33.3625 81.105 28.0686C81.326 27.091 81.8903 26.5228 82.9559 26.5081C84.0412 26.4933 84.6252 27.102 84.8305 28.0501C85.9868 33.3809 89.4202 36.727 94.9729 38.2137C95.9832 38.483 96.5791 39.0032 96.5594 40.0177C96.5397 41.0617 95.8056 41.4934 94.8506 41.7479C89.3886 43.2014 86.0539 46.518 84.866 51.716C84.8068 51.9779 84.7713 52.3062 84.5897 52.4723C84.1398 52.8854 83.611 53.2212 83.3347 53.4277ZM82.9519 45.699C84.941 43.8065 87.0642 41.7885 89.144 39.8111C88.1613 39.0401 86.9024 38.199 85.8368 37.1808C84.7752 36.1699 83.9109 34.982 83.1177 34.0598C81.0103 36.0666 78.8594 38.1141 76.9335 39.9439C78.9226 41.8438 81.0182 43.8507 82.9519 45.699Z" fill="#CD8A1A"/>
<path d="M62.4663 0.905328C64.0094 0.97911 64.6566 1.51404 64.8619 2.46215C65.9432 7.46093 69.1556 10.5856 74.3768 11.9469C75.3516 12.2015 76.0107 12.8323 75.8094 13.6845C75.6634 14.3006 75.0004 15.1196 74.3926 15.2856C69.132 16.7465 65.9156 19.8823 64.8303 24.929C64.6409 25.8181 63.9936 26.3493 62.9794 26.3383C61.973 26.3272 61.3732 25.8144 61.1719 24.8995C60.0669 19.9376 56.9413 16.7317 51.6924 15.3705C50.7571 15.127 50.1691 14.6216 50.1612 13.6587C50.1533 12.6257 50.8084 12.1351 51.799 11.8879C55.7218 10.914 58.5554 8.6968 60.2287 5.24745C60.6628 4.35468 60.7575 3.31803 61.1956 2.42894C61.5152 1.78334 62.1467 1.27055 62.4663 0.897949V0.905328ZM68.4334 13.6402C66.6575 11.9469 64.7632 10.1429 62.9952 8.457C61.2074 10.1651 59.2894 11.9949 57.5688 13.6366C59.3999 15.3963 61.2863 17.2113 62.9912 18.8493C64.7632 17.156 66.6299 15.3668 68.4374 13.6402H68.4334Z" fill="#CD8A1A"/>
<path d="M25.6219 52.0809C25.4561 56.5337 23.0053 60.245 19.2009 61.4993C13.1273 63.5025 7.13653 59.4149 6.78529 53.0696C6.61165 49.9375 7.60221 47.0858 9.19265 44.4259C10.8107 41.7144 12.6142 39.0988 14.406 36.4832C15.3215 35.1477 16.8528 35.074 17.6973 36.3836C19.9744 39.9289 22.2516 43.4815 24.2643 47.1596C25.0694 48.6316 25.1878 50.4319 25.6219 52.0809ZM16.2608 40.2793C14.035 43.4741 12.0341 46.2189 10.9883 49.4395C10.3726 51.332 10.3213 53.2467 11.083 55.1355C11.9394 57.2494 13.6798 58.4447 15.9885 58.5037C18.2419 58.5627 20.0928 57.4043 21.0163 55.3052C22.0227 53.0143 21.9003 50.6606 20.8387 48.4766C19.5324 45.7909 17.9262 43.2307 16.2608 40.2793Z" fill="#CD8A1A"/>
<path d="M51.6697 36.0112C50.8291 36.7822 50.3871 37.5274 49.7557 37.7119C46.4683 38.6784 44.4161 40.6042 43.7373 43.799C43.5439 44.7028 42.7783 45.3041 41.8469 45.0717C41.1839 44.9094 40.2999 44.297 40.1578 43.7436C39.3646 40.6447 37.4111 38.7153 34.1907 37.7266C33.583 37.5422 32.9555 36.7379 32.7976 36.1182C32.5727 35.2401 33.2633 34.6388 34.2144 34.3806C37.419 33.5173 39.3883 31.5658 40.0789 28.5075C40.2841 27.5999 40.88 27.0687 41.8785 27.0502C42.948 27.0318 43.5873 27.5925 43.7965 28.548C44.4634 31.5694 46.4288 33.4214 49.5307 34.3916C50.2253 34.6093 50.7502 35.2918 51.6737 36.0075L51.6697 36.0112ZM42.064 34.0006C41.2589 34.6425 40.2881 35.4172 39.4356 36.096C40.2723 36.9113 41.1445 37.7598 41.8035 38.398C42.7033 37.6196 43.6071 36.8375 44.4674 36.0886C43.6031 35.3397 42.6994 34.554 42.064 34.0006Z" fill="#CD8A1A"/>
</g>
<rect x="1.45898" y="1.40527" width="94.6036" height="122.387" stroke="#CD8A1A"/>
<defs>
<clipPath id="clip0_18_1745">
<rect x="0.958984" y="0.905273" width="95.6036" height="123.387" fill="white"/>
</clipPath>
</defs>
</svg>
