<svg width="122" height="120" viewBox="0 0 122 120" fill="none" xmlns="http://www.w3.org/2000/svg">
<g clip-path="url(#clip0_18_1783)">
<path d="M101.101 37.9052C102.045 34.1963 102.437 30.4913 102.049 26.7314C101.321 19.6905 97.7066 14.0349 92.9085 9.02698C91.1892 7.23338 89.214 5.66741 87.3387 4.01902C86.4231 3.21445 86.2072 2.08021 86.8709 1.27564C87.5507 0.447518 88.6102 0.294453 89.5859 1.05585C96.8869 6.72316 102.713 13.4502 105.124 22.5124C106.519 27.7636 106.115 33.0424 104.884 38.2701C104.656 39.2317 104.808 39.8243 105.5 40.57C107.951 43.2035 108.458 46.4571 108.094 49.852C107.515 55.2996 104.34 59.1615 99.9137 62.1639C99.222 62.6349 98.8702 63.1608 98.6662 63.9418C96.6231 71.8659 93.5563 79.3268 88.2584 85.7555C87.6946 86.4384 87.1788 87.1998 86.4831 87.7218C84.9597 88.8678 84.6478 90.3278 84.7398 92.1096C84.9277 95.7635 84.4879 99.4449 85.4515 103.067C86.755 107.966 89.282 112.09 93.1524 115.426C93.3364 115.583 93.5283 115.733 93.7042 115.897C94.6678 116.796 94.7878 117.797 94.0361 118.637C93.2844 119.477 92.2488 119.524 91.2212 118.68C86.3511 114.685 82.9925 109.685 81.769 103.574C81.1092 100.281 81.2052 96.8428 80.9573 93.4676C80.9413 93.2321 80.9293 92.9966 80.9093 92.6944C67.9025 100.124 54.9476 100.108 41.8049 92.6709C41.8049 94.1622 41.8049 95.6105 41.8049 97.0587C41.8128 101.396 40.8772 105.52 38.946 109.429C37.1987 112.966 34.7876 115.992 31.7289 118.523C30.5533 119.496 29.5257 119.528 28.7261 118.637C27.9224 117.742 28.0943 116.726 29.2418 115.744C35.1315 110.693 38.0983 104.355 37.9944 96.6544C37.9664 94.539 38.0144 92.4197 37.9704 90.3082C37.9624 89.8764 37.8104 89.3309 37.5186 89.0444C30.6133 82.2978 26.7748 73.942 24.3518 64.8602C23.9799 63.4709 23.3642 62.5211 22.1607 61.6576C17.4105 58.2549 14.4317 53.816 14.5837 47.8151C14.6596 44.9108 15.4233 42.2106 17.6624 40.1148C18.9339 38.9256 20.4373 38.0425 22.1807 37.9562C25.2154 37.811 27.6345 36.4765 29.7656 34.5377C33.0683 31.5353 35.6873 28.0776 36.8148 23.7015C36.9228 23.2816 36.9668 22.8381 37.0028 22.4025C37.1107 21.0445 37.8424 20.2713 38.998 20.3184C40.1935 20.3655 41.0412 21.3035 40.7653 22.6772C40.3894 24.5375 39.9656 26.441 39.1819 28.16C37.1107 32.6931 33.94 36.3981 29.7536 39.2278C27.8544 40.5112 25.7912 41.3471 23.4322 41.4963C20.4094 41.6886 18.5661 43.9178 18.3822 47.3677C18.0703 53.1488 21.281 56.8616 25.9512 59.6717C26.7868 60.1741 27.2147 60.751 27.4386 61.689C29.5817 70.657 32.9084 79.0834 39.6417 85.7986C46.567 92.7062 55.1315 95.2062 64.7957 94.2918C77.0029 93.1418 84.8837 86.1322 90.2616 75.8495C92.5727 71.4263 94.148 66.7362 95.2756 61.9049C95.5355 60.7863 96.1073 60.1113 97.0709 59.5226C100.689 57.3247 103.524 54.4518 104.204 50.1542C104.452 48.5843 104.292 46.8771 103.944 45.3111C103.404 42.8974 101.657 41.5709 99.1221 41.5041C95.3396 41.406 92.4447 39.7301 90.4895 36.6806C86.651 30.6954 80.7774 28.8469 74.056 28.4622C70.1256 28.2385 66.1592 28.1326 62.2927 27.485C52.2647 25.8091 45.2635 18.4424 43.892 8.50499C43.816 7.9516 43.8041 7.39037 43.816 6.83305C43.84 5.74983 44.4758 5.063 45.4834 4.98058C46.543 4.89031 47.2587 5.5065 47.5066 6.62112C47.9744 8.75617 48.2143 10.9854 49.026 12.991C51.593 19.3372 56.7229 22.7243 63.3563 23.9488C66.1752 24.4669 69.094 24.4315 71.9609 24.7102C74.8677 24.9889 77.7945 25.1772 80.6574 25.7032C85.6634 26.6294 89.6698 29.2158 92.6206 33.325C93.2044 34.1413 93.8442 34.9224 94.4959 35.6877C95.6594 37.0535 97.1588 37.7325 98.9821 37.7442C99.6618 37.7482 100.338 37.8345 101.101 37.8895V37.9052Z" fill="#CD8A1A"/>
<path d="M15.3418 115.453C14.3782 115.324 13.7825 114.727 13.5785 113.703C13.3426 112.53 13.0747 111.368 12.8268 110.198C11.7073 104.939 8.16069 102.192 3.01873 101.156C1.85919 100.92 0.995536 100.496 0.911569 99.2404C0.843596 98.2435 1.57531 97.6038 2.98674 97.3134C9.18028 96.0339 12.0471 92.9451 13.3186 86.1867C13.4066 85.7158 13.4826 85.2448 13.5825 84.7778C13.8144 83.6553 14.5781 82.9292 15.5378 83.0038C16.6173 83.0862 17.1931 83.7338 17.401 84.7503C17.6329 85.8806 17.8968 87.007 18.1287 88.1373C19.2243 93.4514 22.7709 96.2301 27.9648 97.3094C29.3922 97.6077 30.116 98.216 30.072 99.2129C30.02 100.41 29.2283 100.952 28.1128 101.148C28.0728 101.156 28.0328 101.167 27.9968 101.179C21.0196 103.055 18.2847 106.195 17.421 113.311C17.2531 114.7 16.5294 115.489 15.3498 115.457L15.3418 115.453ZM15.5098 106.352C16.9292 103.079 18.9044 100.693 22.2391 99.2051C18.9884 97.6156 16.8492 95.4216 15.4858 92.0935C14.0943 95.4609 11.9432 97.647 8.72846 99.209C11.9752 100.81 14.1423 103.032 15.5098 106.348V106.352Z" fill="#CD8A1A"/>
<path d="M121.908 87.0974C121.656 87.4114 121.296 87.9098 120.876 88.3533C120.728 88.5103 120.44 88.5731 120.205 88.6124C115.502 89.3855 113.151 92.3212 112.4 96.7444C112.32 97.2154 112.22 97.6824 112.136 98.1534C111.896 99.4486 111.144 100.182 110.109 100.124C109.101 100.065 108.501 99.3073 108.269 98.0788C108.029 96.7954 107.709 95.516 107.31 94.2679C106.278 91.0496 103.835 89.3934 100.616 88.6752C99.2129 88.3612 98.4812 87.7332 98.5571 86.7324C98.6451 85.5472 99.4328 85.0644 100.56 84.8486C105.067 83.9773 107.29 81.0455 108.009 76.7872C108.081 76.3554 108.181 75.9276 108.261 75.4959C108.521 74.1183 109.161 73.4237 110.185 73.408C111.216 73.3923 111.896 74.1105 112.148 75.4488C112.288 76.1906 112.472 76.9285 112.62 77.6702C113.415 81.7402 115.942 84.095 120.045 84.8839C121.14 85.0919 121.768 85.6963 121.916 87.0974H121.908ZM106.318 86.7599C107.586 88.1139 108.933 89.5504 110.181 90.8848C111.456 89.5425 112.835 88.0904 114.103 86.7599C112.811 85.4098 111.448 83.9851 110.204 82.686C108.949 84.0008 107.614 85.4019 106.318 86.7599Z" fill="#CD8A1A"/>
<path d="M61.5897 80.9711C56.7916 80.7788 52.6772 79.3031 49.1666 76.3124C48.103 75.4058 47.9631 74.3776 48.7468 73.5023C49.4585 72.7056 50.578 72.6507 51.5696 73.4749C54.3645 75.7983 57.5553 77.1602 61.2258 77.2073C64.9043 77.2544 68.1071 75.9318 70.9699 73.6907C71.4937 73.2786 72.2894 72.9176 72.9052 72.9882C73.4409 73.051 74.2206 73.6947 74.3166 74.1892C74.4365 74.8014 74.1687 75.7434 73.7088 76.1633C70.9259 78.6948 67.6033 80.1901 63.8408 80.7356C63.0371 80.8534 62.2254 80.9122 61.5936 80.979L61.5897 80.9711Z" fill="#CD8A1A"/>
<path d="M44.1881 53.8704C41.3533 53.6114 38.8463 52.8971 36.6671 51.1427C36.3792 50.9112 35.7875 50.868 35.3956 50.9622C34.0202 51.2997 33.0046 50.9544 32.6567 49.9221C32.2969 48.8468 32.8007 47.9951 34.1321 47.4456C34.7279 47.1984 35.3277 46.8138 35.9394 46.7824C36.6351 46.747 37.6387 46.7941 38.0026 47.2219C40.5536 50.2087 43.8043 50.2087 47.2509 49.5415C48.0026 49.3962 48.7263 49.1215 49.466 48.9135C50.6096 48.5956 51.5492 49.0312 51.9211 50.0399C52.2689 50.974 51.8611 52.0258 50.7655 52.3319C48.5984 52.9363 46.3793 53.3681 44.1841 53.8704H44.1881Z" fill="#CD8A1A"/>
<path d="M72.1981 48.7098C73.9614 49.1141 75.2849 49.483 76.6364 49.7106C79.7271 50.2326 82.538 49.8244 84.6692 47.242C85.225 46.5669 86.0046 46.3864 86.8683 46.7553C87.576 47.0536 88.3157 47.2773 89.0114 47.5991C90.035 48.0701 90.4389 49.0199 90.087 49.9736C89.7632 50.8449 88.7955 51.4061 87.8039 51.0215C86.8403 50.6486 86.2645 50.9705 85.5408 51.5042C82.0862 54.0631 78.1997 53.8905 74.2533 53.0506C73.3897 52.8661 72.53 52.5835 71.7303 52.2146C70.9186 51.8378 70.4508 51.045 70.8187 50.2405C71.1226 49.5733 71.8423 49.0905 72.2021 48.7137L72.1981 48.7098Z" fill="#CD8A1A"/>
</g>
<defs>
<clipPath id="clip0_18_1783">
<rect width="121.004" height="118.731" fill="white" transform="translate(0.902344 0.561035)"/>
</clipPath>
</defs>
</svg>
