<svg width="79" height="82" viewBox="0 0 79 82" fill="none" xmlns="http://www.w3.org/2000/svg">
<path d="M15.2736 45.2423C13.022 45.2423 11.1798 47.1456 11.1798 49.4719C11.1798 51.7983 13.022 53.7016 15.2736 53.7016C17.5252 53.7016 19.3674 51.7983 19.3674 49.4719C19.3674 47.1456 17.5252 45.2423 15.2736 45.2423ZM15.2736 62.161C13.022 62.161 11.1798 64.0643 11.1798 66.3907C11.1798 68.717 13.022 70.6204 15.2736 70.6204C17.5252 70.6204 19.3674 68.717 19.3674 66.3907C19.3674 64.0643 17.5252 62.161 15.2736 62.161ZM15.2736 28.3235C13.022 28.3235 11.1798 30.2269 11.1798 32.5532C11.1798 34.8795 13.022 36.7829 15.2736 36.7829C17.5252 36.7829 19.3674 34.8795 19.3674 32.5532C19.3674 30.2269 17.5252 28.3235 15.2736 28.3235ZM2.99222 30.4384C1.84595 30.4384 0.945312 31.3689 0.945312 32.5532C0.945312 33.7375 1.84595 34.668 2.99222 34.668C4.13848 34.668 5.03912 33.7375 5.03912 32.5532C5.03912 31.3689 4.13848 30.4384 2.99222 30.4384ZM15.2736 11.4048C13.022 11.4048 11.1798 13.3081 11.1798 15.6345C11.1798 17.9608 13.022 19.8641 15.2736 19.8641C17.5252 19.8641 19.3674 17.9608 19.3674 15.6345C19.3674 13.3081 17.5252 11.4048 15.2736 11.4048ZM76.6808 34.668C77.827 34.668 78.7277 33.7375 78.7277 32.5532C78.7277 31.3689 77.827 30.4384 76.6808 30.4384C75.5345 30.4384 74.6339 31.3689 74.6339 32.5532C74.6339 33.7375 75.5345 34.668 76.6808 34.668ZM48.0241 19.8641C50.2757 19.8641 52.1179 17.9608 52.1179 15.6345C52.1179 13.3081 50.2757 11.4048 48.0241 11.4048C45.7725 11.4048 43.9303 13.3081 43.9303 15.6345C43.9303 17.9608 45.7725 19.8641 48.0241 19.8641ZM48.0241 5.06025C49.1704 5.06025 50.071 4.12972 50.071 2.94541C50.071 1.7611 49.1704 0.830566 48.0241 0.830566C46.8778 0.830566 45.9772 1.7611 45.9772 2.94541C45.9772 4.12972 46.8778 5.06025 48.0241 5.06025ZM2.99222 47.3571C1.84595 47.3571 0.945312 48.2876 0.945312 49.4719C0.945312 50.6562 1.84595 51.5868 2.99222 51.5868C4.13848 51.5868 5.03912 50.6562 5.03912 49.4719C5.03912 48.2876 4.13848 47.3571 2.99222 47.3571ZM31.6489 76.9649C30.5026 76.9649 29.602 77.8954 29.602 79.0797C29.602 80.264 30.5026 81.1946 31.6489 81.1946C32.7951 81.1946 33.6958 80.264 33.6958 79.0797C33.6958 77.8954 32.7951 76.9649 31.6489 76.9649ZM31.6489 5.06025C32.7951 5.06025 33.6958 4.12972 33.6958 2.94541C33.6958 1.7611 32.7951 0.830566 31.6489 0.830566C30.5026 0.830566 29.602 1.7611 29.602 2.94541C29.602 4.12972 30.5026 5.06025 31.6489 5.06025ZM31.6489 19.8641C33.9005 19.8641 35.7427 17.9608 35.7427 15.6345C35.7427 13.3081 33.9005 11.4048 31.6489 11.4048C29.3973 11.4048 27.5551 13.3081 27.5551 15.6345C27.5551 17.9608 29.3973 19.8641 31.6489 19.8641ZM31.6489 43.1274C28.251 43.1274 25.5082 45.9613 25.5082 49.4719C25.5082 52.9826 28.251 55.8165 31.6489 55.8165C35.0467 55.8165 37.7896 52.9826 37.7896 49.4719C37.7896 45.9613 35.0467 43.1274 31.6489 43.1274ZM64.3993 45.2423C62.1477 45.2423 60.3055 47.1456 60.3055 49.4719C60.3055 51.7983 62.1477 53.7016 64.3993 53.7016C66.6509 53.7016 68.4931 51.7983 68.4931 49.4719C68.4931 47.1456 66.6509 45.2423 64.3993 45.2423ZM64.3993 62.161C62.1477 62.161 60.3055 64.0643 60.3055 66.3907C60.3055 68.717 62.1477 70.6204 64.3993 70.6204C66.6509 70.6204 68.4931 68.717 68.4931 66.3907C68.4931 64.0643 66.6509 62.161 64.3993 62.161ZM64.3993 28.3235C62.1477 28.3235 60.3055 30.2269 60.3055 32.5532C60.3055 34.8795 62.1477 36.7829 64.3993 36.7829C66.6509 36.7829 68.4931 34.8795 68.4931 32.5532C68.4931 30.2269 66.6509 28.3235 64.3993 28.3235ZM64.3993 11.4048C62.1477 11.4048 60.3055 13.3081 60.3055 15.6345C60.3055 17.9608 62.1477 19.8641 64.3993 19.8641C66.6509 19.8641 68.4931 17.9608 68.4931 15.6345C68.4931 13.3081 66.6509 11.4048 64.3993 11.4048ZM76.6808 47.3571C75.5345 47.3571 74.6339 48.2876 74.6339 49.4719C74.6339 50.6562 75.5345 51.5868 76.6808 51.5868C77.827 51.5868 78.7277 50.6562 78.7277 49.4719C78.7277 48.2876 77.827 47.3571 76.6808 47.3571ZM48.0241 62.161C45.7725 62.161 43.9303 64.0643 43.9303 66.3907C43.9303 68.717 45.7725 70.6204 48.0241 70.6204C50.2757 70.6204 52.1179 68.717 52.1179 66.3907C52.1179 64.0643 50.2757 62.161 48.0241 62.161ZM48.0241 76.9649C46.8778 76.9649 45.9772 77.8954 45.9772 79.0797C45.9772 80.264 46.8778 81.1946 48.0241 81.1946C49.1704 81.1946 50.071 80.264 50.071 79.0797C50.071 77.8954 49.1704 76.9649 48.0241 76.9649ZM31.6489 26.2087C28.251 26.2087 25.5082 29.0426 25.5082 32.5532C25.5082 36.0638 28.251 38.8977 31.6489 38.8977C35.0467 38.8977 37.7896 36.0638 37.7896 32.5532C37.7896 29.0426 35.0467 26.2087 31.6489 26.2087ZM31.6489 62.161C29.3973 62.161 27.5551 64.0643 27.5551 66.3907C27.5551 68.717 29.3973 70.6204 31.6489 70.6204C33.9005 70.6204 35.7427 68.717 35.7427 66.3907C35.7427 64.0643 33.9005 62.161 31.6489 62.161ZM48.0241 43.1274C44.6262 43.1274 41.8834 45.9613 41.8834 49.4719C41.8834 52.9826 44.6262 55.8165 48.0241 55.8165C51.422 55.8165 54.1648 52.9826 54.1648 49.4719C54.1648 45.9613 51.422 43.1274 48.0241 43.1274ZM48.0241 26.2087C44.6262 26.2087 41.8834 29.0426 41.8834 32.5532C41.8834 36.0638 44.6262 38.8977 48.0241 38.8977C51.422 38.8977 54.1648 36.0638 54.1648 32.5532C54.1648 29.0426 51.422 26.2087 48.0241 26.2087Z" fill="#CD8A1A"/>
</svg>
