<svg width="134" height="141" viewBox="0 0 134 141" fill="none" xmlns="http://www.w3.org/2000/svg">
<path d="M72.1631 0.578125C73.3895 0.733007 74.6052 0.960167 75.8425 1.01179C79.3049 1.16668 82.4742 2.1889 85.5566 3.60349C98.8742 9.69551 109.109 18.6993 115.09 31.7507C116.577 34.9929 117.51 38.328 117.521 41.911C117.532 45.4629 117.814 49.0046 117.847 52.5565C117.857 54.0537 118.324 55.2102 119.388 56.346C122.698 59.9082 125.542 63.7906 127.105 68.3751C128.32 71.9477 128.614 75.5307 126.616 78.9484C126.041 79.9293 125.216 80.776 124.446 81.633C122.731 83.5123 122.872 85.123 124.836 86.7441C126.671 88.262 128.342 89.9347 127.951 92.5367C127.843 93.2802 127.615 94.1062 127.148 94.6844C124.543 97.9266 124.902 101.489 125.846 105.082C126.519 107.643 128.169 109.76 130.448 111.164C132.412 112.382 132.89 114.055 133.096 115.986C133.368 118.474 132.89 120.87 132.011 123.214C130.676 126.755 128.809 130.008 126.313 133.136C125.151 131.784 123.968 130.555 122.98 129.202C122.177 128.087 121.222 128.015 120.017 128.304C116.902 129.058 114.84 131.453 114.428 134.995C114.221 136.74 114.189 138.506 114.069 140.261C109.641 139.714 106.472 135.945 106.808 131.35C106.96 129.326 107.373 127.323 107.633 125.537C104.442 124.845 101.088 124.422 97.9625 123.389C89.5942 120.632 84.8294 114.675 82.8975 106.683C82.1485 103.575 82.1594 100.291 81.9098 97.0799C81.8663 96.5843 82.1594 95.8615 82.561 95.5724C88.8453 90.864 92.0798 84.4312 94.0985 77.3067C95.4661 72.4537 96.1825 67.5078 96.2693 62.4999C87.9662 60.0528 85.6543 53.3722 83.6789 46.5058C83.3533 45.3803 83.0277 44.8124 81.6384 44.6575C72.2825 43.6043 65.7376 38.7204 61.3961 30.935C61.2659 30.6975 61.1248 30.4497 60.9728 30.2225C60.9294 30.1503 60.8209 30.1193 60.4519 29.8715C59.844 30.522 59.1711 31.1725 58.585 31.8953C57.1089 33.7229 56.5011 35.5918 57.0004 38.0699C57.8687 42.355 57.4996 46.6194 54.428 50.2539C53.0821 51.8441 51.3672 52.9076 49.0554 53.7336C53.6031 49.1904 52.3875 43.7799 50.2276 40.7545C48.2197 45.0912 45.1806 48.7361 42.2175 52.4429C41.9679 52.7527 41.8051 53.1657 41.7617 53.5581C41.0127 59.1545 40.1987 64.7406 39.6017 70.3576C39.2219 73.9612 40.5352 77.2757 42.3912 80.363C45.8969 86.2072 50.6726 91.0395 56.0344 95.3556C56.9244 96.0784 57.25 96.7908 57.2826 97.8853C57.4562 102.769 56.9569 107.54 54.6234 111.969C50.868 119.104 44.8116 123.152 36.4324 124.05C28.0425 124.948 20.0432 127.148 12.4565 130.658C12.3262 130.72 12.1851 130.751 11.9897 130.813C12.413 125.609 9.59106 121.675 6.44347 117.566C4.70686 120.674 5.34724 123.792 5.31467 127.168C3.68661 125.041 2.60123 122.966 1.81976 120.756C0.734382 117.669 0.397915 114.499 1.25536 111.35C1.62439 109.997 2.40586 108.675 3.28502 107.54C5.04333 105.247 5.87907 103.131 4.30527 100.281C1.45073 95.1284 3.16563 89.1293 8.03897 85.536C13.2271 81.7053 14.8443 76.5219 13.5744 70.5848C12.5976 66.0106 11.9246 61.519 13.5744 56.9965C14.5187 54.4151 15.9514 52.0712 18.3284 50.4811C22.6047 47.6003 24.222 43.4701 24.7646 38.7927C25.4701 32.6387 26.9028 26.7016 30.2132 21.2704C35.5099 12.5763 43.4331 7.47554 53.7117 5.56532C55.0901 5.30719 56.2189 5.10068 57.1523 3.72739C58.6067 1.61067 61.2767 1.30091 63.7514 0.898214C64.2507 0.784634 64.7608 0.671054 65.2709 0.578125C67.5719 0.578125 69.8621 0.578125 72.1631 0.578125Z" fill="#CD8A1A"/>
</svg>
